# 3ds Max Wavefront OBJ Exporter v0.99 - (c)2007 guruware
# File Created: 18.02.2026 19:16:25

mtllib knife.mtl

#
# object Object001
#

v  152.4192 40.0446 -25.2313
v  152.4192 33.1107 -38.7206
v  -155.7533 33.1107 -38.7206
v  -155.7533 40.0446 -25.2313
v  152.4192 22.7335 -47.7338
v  -155.7533 22.7335 -47.7338
v  152.4192 10.4927 -50.8988
v  -155.7533 10.4927 -50.8988
v  152.4192 -1.7482 -47.7338
v  -155.7533 -1.7482 -47.7338
v  152.4192 -19.0593 -25.2313
v  152.4192 -21.4941 -9.3197
v  -155.7533 -21.4941 -9.3197
v  -155.7533 -19.0593 -25.2313
v  152.4192 -19.0593 6.5919
v  -155.7533 -19.0593 6.5919
v  152.4192 -12.1254 20.3656
v  152.4192 -1.7482 29.0944
v  -155.7533 -1.7482 29.0944
v  -155.7533 -12.1254 20.3656
v  152.4192 10.4927 32.2594
v  -155.7533 10.4927 32.2594
v  152.4192 22.7335 29.0944
v  -155.7533 22.7335 29.0944
v  152.4192 33.1107 20.0811
v  152.4192 40.0446 6.5919
v  -155.7533 40.0446 6.5919
v  -155.7533 33.1107 20.0811
v  152.4192 42.4794 -9.3197
v  -155.7533 42.4794 -9.3197
v  152.4192 -12.1254 -39.0050
v  -155.7533 -12.1254 -39.0050
v  -141.8390 8.8746 -44.6536
v  -280.5996 8.8746 129.6705
v  -600.0599 8.8746 -44.5777
v  -650.9997 8.8746 63.8714
v  -734.7421 8.8746 -1.8315
v  -499.0263 8.8746 116.1107
v  -169.3871 8.8746 51.7704
v  -188.3535 8.8746 99.4839
v  -600.0500 21.7806 -41.1360
v  -141.8608 12.9055 -41.1360
v  -188.3629 12.9583 99.5063
v  -280.5743 14.5894 127.5489
v  -499.0408 14.8587 114.0843
v  -651.0200 14.8587 61.8588
v  -734.7466 17.7349 -1.8206
v  -169.3941 11.1713 51.7871
# 48 vertices

vn 0.6727 0.7039 -0.2281
vn 0.6669 0.5863 -0.4599
vn -0.6669 0.5863 -0.4599
vn -0.6727 0.7039 -0.2281
vn 0.6590 0.3500 -0.6657
vn -0.6590 0.3500 -0.6657
vn 0.6549 0.0000 -0.7557
vn -0.6549 0.0000 -0.7557
vn 0.6605 -0.3442 -0.6673
vn -0.6605 -0.3442 -0.6673
vn 0.6735 -0.7042 -0.2249
vn 0.6746 -0.7382 -0.0000
vn -0.6746 -0.7382 -0.0000
vn -0.6735 -0.7042 -0.2249
vn 0.6735 -0.7042 0.2249
vn -0.6735 -0.7041 0.2249
vn 0.6645 -0.5862 0.4634
vn 0.6605 -0.3442 0.6673
vn -0.6605 -0.3442 0.6673
vn -0.6645 -0.5862 0.4634
vn 0.6549 0.0000 0.7557
vn -0.6549 0.0000 0.7557
vn 0.6590 0.3500 0.6657
vn -0.6590 0.3500 0.6657
vn 0.6669 0.5863 0.4599
vn 0.6726 0.7039 0.2281
vn -0.6726 0.7039 0.2281
vn -0.6669 0.5863 0.4599
vn 0.6746 0.7382 -0.0000
vn -0.6746 0.7382 0.0000
vn 0.6645 -0.5862 -0.4634
vn -0.6645 -0.5862 -0.4634
vn -0.0002 -0.2169 -0.9762
vn 0.1029 -0.5302 0.8416
vn -0.1223 -0.5755 -0.8086
vn -0.3841 -0.5606 0.7336
vn -0.8202 -0.5523 -0.1490
vn -0.1582 -0.5544 0.8171
vn 0.0000 -1.0000 -0.0000
vn 0.1765 -0.8233 0.5395
vn -0.0972 0.7839 -0.6133
vn 0.0227 0.8920 -0.4515
vn 0.1771 0.8266 0.5342
vn 0.0792 0.7926 0.6045
vn -0.1248 0.7735 0.6214
vn -0.3109 0.7523 0.5809
vn -0.8219 0.5505 -0.1467
vn 0.4788 0.8636 0.1580
# 48 vertex normals

vt 0.4982 0.6947 0.0000
vt 0.4982 0.6725 0.0000
vt 0.9769 0.6725 0.0000
vt 0.9769 0.6947 0.0000
vt 0.4982 0.6523 0.0000
vt 0.9769 0.6523 0.0000
vt 0.4982 0.6335 0.0000
vt 0.9769 0.6335 0.0000
vt 0.4982 0.6146 0.0000
vt 0.9769 0.6146 0.0000
vt 0.4982 0.9135 0.0000
vt 0.4982 0.8886 0.0000
vt 0.9769 0.8886 0.0000
vt 0.9769 0.9135 0.0000
vt 0.4982 0.8640 0.0000
vt 0.9769 0.8640 0.0000
vt 0.4982 0.8408 0.0000
vt 0.4982 0.8206 0.0000
vt 0.9769 0.8206 0.0000
vt 0.9769 0.8408 0.0000
vt 0.4982 0.8021 0.0000
vt 0.9769 0.8021 0.0000
vt 0.4982 0.7838 0.0000
vt 0.9769 0.7838 0.0000
vt 0.4982 0.7639 0.0000
vt 0.4982 0.7418 0.0000
vt 0.9769 0.7418 0.0000
vt 0.9769 0.7639 0.0000
vt 0.4982 0.7183 0.0000
vt 0.9769 0.7183 0.0000
vt 0.2311 0.8028 0.0000
vt 0.2311 0.6930 0.0000
vt 0.2395 0.7479 0.0000
vt 0.2072 0.8494 0.0000
vt 0.2072 0.6464 0.0000
vt 0.1713 0.8805 0.0000
vt 0.1713 0.6153 0.0000
vt 0.1291 0.8914 0.0000
vt 0.1291 0.6044 0.0000
vt 0.0868 0.8805 0.0000
vt 0.0868 0.6153 0.0000
vt 0.0510 0.8504 0.0000
vt 0.0510 0.6455 0.0000
vt 0.0271 0.8028 0.0000
vt 0.0271 0.6930 0.0000
vt 0.0187 0.7479 0.0000
vt 0.4982 0.5939 0.0000
vt 0.9769 0.5939 0.0000
vt 0.4982 0.5701 0.0000
vt 0.9769 0.5701 0.0000
vt 0.4732 0.6842 0.0000
vt 0.4820 0.7413 0.0000
vt 0.4732 0.7984 0.0000
vt 0.4483 0.8469 0.0000
vt 0.4483 0.6358 0.0000
vt 0.4111 0.8792 0.0000
vt 0.4111 0.6034 0.0000
vt 0.3671 0.8906 0.0000
vt 0.3671 0.5921 0.0000
vt 0.3232 0.8792 0.0000
vt 0.3232 0.6034 0.0000
vt 0.2860 0.8479 0.0000
vt 0.2860 0.6348 0.0000
vt 0.2611 0.7984 0.0000
vt 0.2611 0.6842 0.0000
vt 0.2523 0.7413 0.0000
vt 0.0174 0.2958 0.0000
vt 0.2419 0.0072 0.0000
vt 0.7706 0.2843 0.0000
vt 0.8498 0.1039 0.0000
vt 0.9898 0.2076 0.0000
vt 0.5995 0.0237 0.0000
vt 0.0606 0.1365 0.0000
vt 0.0911 0.0578 0.0000
vt 0.2602 0.9608 0.0000
vt 0.9600 0.9640 0.0000
vt 0.9603 0.9837 0.0000
vt 0.2610 0.9805 0.0000
vt 0.0442 0.9355 0.0000
vt 0.1921 0.9362 0.0000
vt 0.1925 0.9416 0.0000
vt 0.0439 0.9448 0.0000
vt 0.5298 0.9328 0.0000
vt 0.5292 0.9387 0.0000
vt 0.7826 0.9307 0.0000
vt 0.7811 0.9363 0.0000
vt 0.9592 0.9267 0.0000
vt 0.9592 0.9361 0.0000
vt 0.0337 0.9645 0.0000
vt 0.0336 0.9736 0.0000
vt 0.0641 0.4586 0.0000
vt 0.0164 0.3066 0.0000
vt 0.2487 0.5797 0.0000
vt 0.0968 0.5363 0.0000
vt 0.7691 0.2955 0.0000
vt 0.9906 0.3599 0.0000
vt 0.8538 0.4647 0.0000
vt 0.6060 0.5523 0.0000
# 98 texture coords

o Object001
g Object001
usemtl Material__24
s 8
f 1/1/1 2/2/2 3/3/3 4/4/4 
f 2/2/2 5/5/5 6/6/6 3/3/3 
f 5/5/5 7/7/7 8/8/8 6/6/6 
f 7/7/7 9/9/9 10/10/10 8/8/8 
f 11/11/11 12/12/12 13/13/13 14/14/14 
f 12/12/12 15/15/15 16/16/16 13/13/13 
f 17/17/17 18/18/18 19/19/19 20/20/20 
f 18/18/18 21/21/21 22/22/22 19/19/19 
f 21/21/21 23/23/23 24/24/24 22/22/22 
f 25/25/25 26/26/26 27/27/27 28/28/28 
f 26/26/26 29/29/29 30/30/30 27/27/27 
s off
f 26/31/26 1/32/1 29/33/29 
f 26/31/26 25/34/25 2/35/2 1/32/1 
f 25/34/25 23/36/23 5/37/5 2/35/2 
f 23/36/23 21/38/21 7/39/7 5/37/5 
f 21/38/21 18/40/18 9/41/9 7/39/7 
f 18/40/18 17/42/17 31/43/31 9/41/9 
f 17/42/17 15/44/15 11/45/11 31/43/31 
f 15/44/15 12/46/12 11/45/11 
s 8
f 30/30/30 29/29/29 1/1/1 4/4/4 
f 10/10/10 9/9/9 31/47/31 32/48/32 
f 32/48/32 31/47/31 11/49/11 14/50/14 
f 16/16/16 15/15/15 17/17/17 20/20/20 
f 24/24/24 23/23/23 25/25/25 28/28/28 
s off
f 27/51/27 30/52/30 4/53/4 
f 27/51/27 4/53/4 3/54/3 28/55/28 
f 28/55/28 3/54/3 6/56/6 24/57/24 
f 24/57/24 6/56/6 8/58/8 22/59/22 
f 22/59/22 8/58/8 10/60/10 19/61/19 
f 19/61/19 10/60/10 32/62/32 20/63/20 
f 20/63/20 32/62/32 14/64/14 16/65/16 
f 16/65/16 14/64/14 13/66/13 
s 1073741824
f 33/67/33 34/68/34 35/69/35 
f 35/69/35 36/70/36 37/71/37 
f 35/69/35 34/68/34 38/72/38 
f 35/69/35 38/72/38 36/70/36 
f 39/73/39 40/74/40 34/68/34 
f 33/67/33 39/73/39 34/68/34 
s off
f 41/75/41 42/76/42 33/77/33 35/78/35 
f 43/79/43 44/80/44 34/81/34 40/82/40 
f 44/80/44 45/83/45 38/84/38 34/81/34 
s 1
f 45/83/45 46/85/46 36/86/36 38/84/38 
f 46/85/46 47/87/47 37/88/37 36/86/36 
s off
f 47/89/47 41/75/41 35/78/35 37/90/37 
s 1073741824
f 48/91/48 42/92/42 44/93/44 43/94/43 
s off
f 41/95/41 47/96/47 46/97/46 
f 41/95/41 46/97/46 45/98/45 
f 42/92/42 41/95/41 45/98/45 44/93/44 
# 36 polygons - 12 triangles

