# 3ds Max Wavefront OBJ Exporter v0.99 - (c)2007 guruware
# File Created: 18.02.2026 19:15:57

mtllib RollingPin.mtl

#
# object Cylinder
#

v  -33.0058 -8.4977 -333.9642
v  -33.6524 -1.9313 -334.0022
v  -34.4727 -3.0292 -523.8702
v  -33.8103 -9.7556 -523.8313
v  -0.0000 31.7266 -334.1968
v  0.0000 75.6641 -334.4509
v  15.1356 74.1732 -334.4422
v  6.5653 31.0799 -334.1931
v  29.6896 69.7575 -334.4167
v  12.8782 29.1645 -334.1820
v  43.1027 62.5870 -334.3752
v  18.6963 26.0542 -334.1640
v  54.8593 52.9370 -334.3194
v  23.7958 21.8684 -334.1398
v  64.5077 41.1784 -334.2514
v  27.9809 16.7680 -334.1103
v  71.6771 27.7632 -334.1739
v  31.0908 10.9490 -334.0767
v  76.0920 13.2068 -334.0897
v  33.0058 4.6350 -334.0401
v  77.5827 -1.9313 -334.0022
v  33.6524 -1.9313 -334.0022
v  76.0920 -17.0695 -333.9146
v  33.0058 -8.4977 -333.9642
v  71.6771 -31.6258 -333.8305
v  31.0908 -14.8117 -333.9277
v  64.5077 -45.0411 -333.7529
v  27.9809 -20.6307 -333.8940
v  54.8593 -56.7996 -333.6849
v  23.7958 -25.7311 -333.8645
v  43.1027 -66.4496 -333.6291
v  18.6963 -29.9169 -333.8403
v  29.6896 -73.6202 -333.5876
v  12.8782 -33.0272 -333.8224
v  15.1356 -78.0358 -333.5621
v  6.5653 -34.9425 -333.8113
v  0.0000 -79.5268 -333.5535
v  -0.0000 -35.5892 -333.8076
v  -15.1356 -78.0358 -333.5621
v  -6.5653 -34.9425 -333.8113
v  -29.6896 -73.6202 -333.5876
v  -12.8782 -33.0272 -333.8224
v  -43.1027 -66.4496 -333.6291
v  -18.6963 -29.9169 -333.8403
v  -54.8593 -56.7996 -333.6849
v  -23.7958 -25.7311 -333.8645
v  -64.5077 -45.0411 -333.7529
v  -27.9809 -20.6307 -333.8940
v  -71.6771 -31.6258 -333.8305
v  -31.0908 -14.8117 -333.9277
v  -76.0920 -17.0695 -333.9146
v  -77.5827 -1.9313 -334.0022
v  -76.0920 13.2068 -334.0897
v  -33.0058 4.6350 -334.0401
v  -71.6771 27.7632 -334.1739
v  -31.0908 10.9490 -334.0767
v  -64.5077 41.1784 -334.2514
v  -27.9809 16.7680 -334.1103
v  -54.8593 52.9370 -334.3194
v  -23.7958 21.8684 -334.1398
v  -43.1027 62.5870 -334.3752
v  -18.6963 26.0542 -334.1640
v  -29.6896 69.7575 -334.4167
v  -12.8782 29.1645 -334.1820
v  -15.1356 74.1732 -334.4422
v  -6.5653 31.0799 -334.1931
v  -28.6630 16.1260 -523.9810
v  -31.8487 10.1651 -523.9465
v  28.6630 -22.1844 -523.7594
v  31.8486 -16.2235 -523.7939
v  -33.8103 3.6972 -523.9091
v  24.3759 -27.4091 -523.7292
v  19.1520 -31.6970 -523.7044
v  13.1921 -34.8831 -523.6860
v  -24.3759 21.3507 -524.0112
v  6.7253 -36.8451 -523.6746
v  13.1921 28.8247 -524.0544
v  6.7253 30.7867 -524.0657
v  -19.1520 25.6385 -524.0359
v  -0.0000 -37.5076 -523.6708
v  19.1520 25.6385 -524.0359
v  -13.1922 28.8247 -524.0544
v  -6.7253 -36.8451 -523.6746
v  24.3759 21.3507 -524.0112
v  -6.7253 30.7867 -524.0657
v  -13.1922 -34.8831 -523.6860
v  28.6630 16.1260 -523.9810
v  -0.0000 31.4492 -524.0695
v  -19.1520 -31.6970 -523.7044
v  31.8486 10.1651 -523.9465
v  -24.3759 -27.4091 -523.7292
v  33.8103 3.6972 -523.9091
v  -28.6630 -22.1844 -523.7594
v  34.4727 -3.0292 -523.8702
v  -31.8487 -16.2235 -523.7939
v  33.8103 -9.7556 -523.8313
v  -0.0000 -3.0292 -523.8702
v  -33.0058 -4.6350 334.0401
v  -33.8103 -3.6972 523.9091
v  -34.4727 3.0292 523.8702
v  -33.6524 1.9313 334.0022
v  -0.0000 35.5893 333.8076
v  6.5653 34.9425 333.8113
v  15.1356 78.0358 333.5621
v  0.0000 79.5268 333.5535
v  12.8782 33.0272 333.8224
v  29.6896 73.6202 333.5876
v  18.6963 29.9169 333.8403
v  43.1027 66.4496 333.6291
v  23.7958 25.7311 333.8645
v  54.8593 56.7996 333.6849
v  27.9809 20.6307 333.8940
v  64.5077 45.0411 333.7529
v  31.0908 14.8117 333.9277
v  71.6771 31.6258 333.8305
v  33.0058 8.4977 333.9642
v  76.0920 17.0695 333.9146
v  33.6524 1.9313 334.0022
v  77.5827 1.9313 334.0022
v  33.0058 -4.6350 334.0401
v  76.0920 -13.2068 334.0897
v  31.0908 -10.9490 334.0767
v  71.6771 -27.7632 334.1739
v  27.9809 -16.7680 334.1103
v  64.5077 -41.1784 334.2514
v  23.7958 -21.8684 334.1398
v  54.8593 -52.9370 334.3194
v  18.6963 -26.0542 334.1640
v  43.1027 -62.5870 334.3752
v  12.8782 -29.1645 334.1820
v  29.6896 -69.7575 334.4167
v  6.5653 -31.0799 334.1931
v  15.1356 -74.1732 334.4422
v  -0.0000 -31.7266 334.1968
v  0.0000 -75.6641 334.4509
v  -6.5653 -31.0799 334.1931
v  -15.1356 -74.1732 334.4422
v  -12.8782 -29.1645 334.1820
v  -29.6896 -69.7575 334.4167
v  -18.6963 -26.0542 334.1640
v  -43.1027 -62.5870 334.3752
v  -23.7958 -21.8684 334.1398
v  -54.8593 -52.9370 334.3194
v  -27.9809 -16.7680 334.1103
v  -64.5077 -41.1784 334.2514
v  -31.0908 -10.9490 334.0767
v  -71.6771 -27.7632 334.1739
v  -76.0920 -13.2068 334.0897
v  -77.5827 1.9313 334.0022
v  -33.0058 8.4977 333.9642
v  -76.0920 17.0695 333.9146
v  -31.0908 14.8117 333.9277
v  -71.6771 31.6258 333.8305
v  -27.9809 20.6307 333.8940
v  -64.5077 45.0411 333.7529
v  -23.7958 25.7311 333.8645
v  -54.8593 56.7996 333.6849
v  -18.6963 29.9169 333.8403
v  -43.1027 66.4496 333.6291
v  -12.8782 33.0272 333.8224
v  -29.6896 73.6202 333.5876
v  -6.5653 34.9425 333.8113
v  -15.1356 78.0358 333.5621
v  -31.8487 16.2235 523.7939
v  -28.6630 22.1844 523.7594
v  31.8486 -10.1651 523.9465
v  28.6630 -16.1260 523.9810
v  -33.8103 9.7556 523.8313
v  24.3759 -21.3507 524.0112
v  19.1520 -25.6385 524.0359
v  13.1921 -28.8247 524.0544
v  -24.3759 27.4091 523.7292
v  6.7253 -30.7867 524.0657
v  6.7253 36.8451 523.6746
v  13.1921 34.8831 523.6860
v  -19.1520 31.6970 523.7044
v  -0.0000 -31.4492 524.0695
v  19.1520 31.6970 523.7044
v  -13.1922 34.8831 523.6860
v  -6.7253 -30.7867 524.0657
v  24.3759 27.4091 523.7292
v  -6.7253 36.8451 523.6746
v  -13.1922 -28.8247 524.0544
v  28.6630 22.1844 523.7594
v  -0.0000 37.5076 523.6708
v  -19.1520 -25.6385 524.0359
v  31.8486 16.2235 523.7939
v  -24.3759 -21.3507 524.0112
v  33.8103 9.7556 523.8313
v  -28.6630 -16.1260 523.9810
v  34.4727 3.0292 523.8702
v  -31.8487 -10.1651 523.9465
v  33.8103 -3.6972 523.9091
v  -0.0000 3.0292 523.8702
# 194 vertices

vn -0.9952 -0.0980 0.0049
vn 0.0000 -0.0058 -1.0000
vn -0.0000 -0.0058 -1.0000
vn -0.8819 0.4713 0.0016
vn 0.8819 -0.4713 0.0070
vn 0.8819 -0.4713 0.0071
vn -0.9952 0.0980 0.0037
vn -0.9952 0.0980 0.0038
vn 0.7731 -0.6343 0.0080
vn -0.9569 0.2903 0.0026
vn 0.6345 -0.7729 0.0088
vn 0.4715 -0.8818 0.0094
vn -0.7731 0.6343 0.0006
vn -0.7731 0.6343 0.0007
vn 0.2903 -0.9569 0.0098
vn 0.2903 0.9569 -0.0012
vn -0.6345 0.7730 -0.0002
vn -0.6345 0.7730 -0.0001
vn 0.0980 -0.9951 0.0100
vn 0.0980 -0.9951 0.0101
vn 0.4715 0.8819 -0.0008
vn 0.4715 0.8819 -0.0007
vn -0.4715 0.8819 -0.0008
vn -0.4715 0.8819 -0.0007
vn -0.0980 -0.9951 0.0101
vn -0.0980 -0.9951 0.0100
vn 0.6345 0.7730 -0.0002
vn 0.6345 0.7730 -0.0001
vn -0.2903 0.9569 -0.0012
vn -0.2903 -0.9569 0.0098
vn 0.7731 0.6343 0.0006
vn 0.7731 0.6343 0.0007
vn -0.0980 0.9952 -0.0014
vn -0.0980 0.9952 -0.0015
vn -0.4715 -0.8818 0.0094
vn 0.8819 0.4713 0.0016
vn -0.6345 -0.7729 0.0088
vn 0.9569 0.2903 0.0026
vn -0.7731 -0.6343 0.0080
vn 0.9952 0.0980 0.0037
vn 0.9952 0.0980 0.0038
vn -0.8819 -0.4713 0.0070
vn -0.8819 -0.4713 0.0071
vn 0.9952 -0.0980 0.0049
vn -0.9569 -0.2902 0.0060
vn 0.9569 -0.2902 0.0060
vn 0.0980 0.9952 -0.0015
vn 0.0980 0.9952 -0.0014
vn -0.9952 -0.0980 -0.0037
vn -0.9952 -0.0980 -0.0038
vn -0.0000 0.0058 1.0000
vn 0.0000 0.0058 1.0000
vn -0.8819 0.4713 -0.0070
vn -0.8819 0.4713 -0.0071
vn 0.8819 -0.4713 -0.0016
vn -0.9952 0.0980 -0.0049
vn 0.7731 -0.6343 -0.0006
vn 0.7731 -0.6343 -0.0007
vn -0.9569 0.2902 -0.0060
vn 0.6345 -0.7730 0.0002
vn 0.6345 -0.7730 0.0001
vn 0.4715 -0.8819 0.0008
vn 0.4715 -0.8819 0.0007
vn -0.7731 0.6343 -0.0080
vn 0.2903 -0.9569 0.0012
vn 0.2903 0.9569 -0.0098
vn -0.6345 0.7729 -0.0088
vn 0.0980 -0.9952 0.0014
vn 0.0980 -0.9952 0.0015
vn 0.4715 0.8818 -0.0094
vn -0.4715 0.8818 -0.0094
vn -0.0980 -0.9952 0.0015
vn -0.0980 -0.9952 0.0014
vn 0.6345 0.7729 -0.0088
vn -0.2903 0.9569 -0.0098
vn -0.2903 -0.9569 0.0012
vn 0.7731 0.6343 -0.0080
vn -0.0980 0.9951 -0.0100
vn -0.0980 0.9951 -0.0101
vn -0.4715 -0.8819 0.0008
vn -0.4715 -0.8819 0.0007
vn 0.8819 0.4713 -0.0070
vn 0.8819 0.4713 -0.0071
vn -0.6345 -0.7730 0.0002
vn -0.6345 -0.7730 0.0001
vn 0.9569 0.2902 -0.0060
vn -0.7731 -0.6343 -0.0006
vn -0.7731 -0.6343 -0.0007
vn 0.9952 0.0980 -0.0049
vn -0.8819 -0.4713 -0.0016
vn 0.9952 -0.0980 -0.0037
vn 0.9952 -0.0980 -0.0038
vn -0.9569 -0.2903 -0.0026
vn 0.9569 -0.2903 -0.0026
vn 0.0980 0.9951 -0.0101
vn 0.0980 0.9951 -0.0100
vn -0.2903 0.9569 -0.0055
vn -0.2903 0.9569 -0.0056
vn -0.4715 0.8819 -0.0051
vn -0.6345 0.7729 -0.0045
vn -0.7731 0.6343 -0.0037
vn -0.8820 0.4713 -0.0027
vn -0.9570 0.2902 -0.0017
vn -0.9952 0.0980 -0.0006
vn -0.9952 -0.0980 0.0006
vn -0.9570 -0.2902 0.0017
vn -0.8820 -0.4713 0.0027
vn -0.7731 -0.6343 0.0037
vn -0.6345 -0.7729 0.0045
vn -0.4715 -0.8819 0.0051
vn -0.2903 -0.9569 0.0056
vn -0.2903 -0.9569 0.0055
vn -0.0980 -0.9952 0.0058
vn -0.0980 -0.9952 0.0057
vn 0.0980 -0.9952 0.0057
vn 0.0980 -0.9952 0.0058
vn 0.2903 -0.9569 0.0055
vn 0.2903 -0.9569 0.0056
vn 0.4715 -0.8819 0.0051
vn 0.6345 -0.7729 0.0045
vn 0.7731 -0.6343 0.0037
vn 0.8820 -0.4713 0.0027
vn 0.9570 -0.2902 0.0017
vn 0.9952 -0.0980 0.0006
vn 0.9952 0.0980 -0.0006
vn 0.9570 0.2902 -0.0017
vn 0.8820 0.4713 -0.0027
vn 0.7731 0.6343 -0.0037
vn 0.6345 0.7729 -0.0045
vn 0.4715 0.8819 -0.0051
vn 0.2903 0.9569 -0.0056
vn 0.2903 0.9569 -0.0055
vn 0.0980 0.9952 -0.0058
vn 0.0980 0.9952 -0.0057
vn -0.0980 0.9952 -0.0057
vn -0.0980 0.9952 -0.0058
# 136 vertex normals

vt 0.6731 0.2593 0.0000
vt 0.6642 0.2595 0.0000
vt 0.6607 0.0040 0.0000
vt 0.6698 0.0039 0.0000
vt 0.8656 0.8247 0.0000
vt 0.8082 0.8445 0.0000
vt 0.8039 0.8305 0.0000
vt 0.8622 0.8139 0.0000
vt 0.8003 0.8165 0.0000
vt 0.8593 0.8029 0.0000
vt 0.7974 0.8025 0.0000
vt 0.8569 0.7917 0.0000
vt 0.7951 0.7884 0.0000
vt 0.8550 0.7803 0.0000
vt 0.7933 0.7743 0.0000
vt 0.8535 0.7689 0.0000
vt 0.7922 0.7602 0.0000
vt 0.8526 0.7574 0.0000
vt 0.7917 0.7461 0.0000
vt 0.8521 0.7458 0.0000
vt 0.7917 0.7319 0.0000
vt 0.8520 0.7343 0.0000
vt 0.7923 0.7178 0.0000
vt 0.8525 0.7227 0.0000
vt 0.7935 0.7037 0.0000
vt 0.8534 0.7112 0.0000
vt 0.7953 0.6897 0.0000
vt 0.8549 0.6997 0.0000
vt 0.7977 0.6757 0.0000
vt 0.8568 0.6884 0.0000
vt 0.8007 0.6617 0.0000
vt 0.8592 0.6771 0.0000
vt 0.8044 0.6479 0.0000
vt 0.8620 0.6660 0.0000
vt 0.8087 0.6341 0.0000
vt 0.8654 0.6551 0.0000
vt 0.8137 0.6204 0.0000
vt 0.8692 0.6444 0.0000
vt 0.8195 0.6067 0.0000
vt 0.8736 0.6339 0.0000
vt 0.8262 0.5932 0.0000
vt 0.8784 0.6239 0.0000
vt 0.8338 0.5798 0.0000
vt 0.8836 0.6142 0.0000
vt 0.8426 0.5665 0.0000
vt 0.8894 0.6051 0.0000
vt 0.8529 0.5534 0.0000
vt 0.8956 0.5965 0.0000
vt 0.8651 0.5409 0.0000
vt 0.9021 0.5886 0.0000
vt 0.8797 0.5298 0.0000
vt 0.9089 0.5814 0.0000
vt 0.8971 0.5215 0.0000
vt 0.9157 0.5745 0.0000
vt 0.9091 0.8925 0.0000
vt 0.8915 0.9479 0.0000
vt 0.8726 0.9398 0.0000
vt 0.9026 0.8869 0.0000
vt 0.8572 0.9281 0.0000
vt 0.8961 0.8803 0.0000
vt 0.8448 0.9148 0.0000
vt 0.8899 0.8727 0.0000
vt 0.8346 0.9009 0.0000
vt 0.8841 0.8643 0.0000
vt 0.8263 0.8868 0.0000
vt 0.8788 0.8552 0.0000
vt 0.8192 0.8727 0.0000
vt 0.8739 0.8454 0.0000
vt 0.8133 0.8586 0.0000
vt 0.8695 0.8353 0.0000
vt 0.9305 0.2592 0.0000
vt 0.9216 0.2591 0.0000
vt 0.9244 0.0037 0.0000
vt 0.9335 0.0038 0.0000
vt 0.7885 0.2585 0.0000
vt 0.7796 0.2585 0.0000
vt 0.7789 0.0030 0.0000
vt 0.7880 0.0030 0.0000
vt 0.9483 0.2595 0.0000
vt 0.9394 0.2593 0.0000
vt 0.9426 0.0039 0.0000
vt 0.9517 0.0040 0.0000
vt 0.7707 0.2586 0.0000
vt 0.7698 0.0031 0.0000
vt 0.7618 0.2586 0.0000
vt 0.7607 0.0031 0.0000
vt 0.7530 0.2586 0.0000
vt 0.7517 0.0031 0.0000
vt 0.9127 0.2590 0.0000
vt 0.9153 0.0036 0.0000
vt 0.7441 0.2587 0.0000
vt 0.7426 0.0032 0.0000
vt 0.8684 0.2587 0.0000
vt 0.8595 0.2586 0.0000
vt 0.8608 0.0031 0.0000
vt 0.8699 0.0032 0.0000
vt 0.9039 0.2589 0.0000
vt 0.9063 0.0035 0.0000
vt 0.7352 0.2587 0.0000
vt 0.7335 0.0032 0.0000
vt 0.8506 0.2586 0.0000
vt 0.8517 0.0031 0.0000
vt 0.8950 0.2589 0.0000
vt 0.8972 0.0034 0.0000
vt 0.7263 0.2588 0.0000
vt 0.7244 0.0033 0.0000
vt 0.8417 0.2586 0.0000
vt 0.8426 0.0031 0.0000
vt 0.8861 0.2588 0.0000
vt 0.8881 0.0033 0.0000
vt 0.7174 0.2589 0.0000
vt 0.7153 0.0034 0.0000
vt 0.8329 0.2585 0.0000
vt 0.8335 0.0030 0.0000
vt 0.8772 0.2587 0.0000
vt 0.8790 0.0032 0.0000
vt 0.7086 0.2589 0.0000
vt 0.7062 0.0035 0.0000
vt 0.8240 0.2585 0.0000
vt 0.8244 0.0030 0.0000
vt 0.6997 0.2590 0.0000
vt 0.6971 0.0036 0.0000
vt 0.8151 0.2585 0.0000
vt 0.8153 0.0030 0.0000
vt 0.6908 0.2591 0.0000
vt 0.6880 0.0037 0.0000
vt 0.8062 0.2585 0.0000
vt 0.8062 0.0030 0.0000
vt 0.6819 0.2592 0.0000
vt 0.6789 0.0038 0.0000
vt 0.7973 0.2585 0.0000
vt 0.7971 0.0030 0.0000
vt 0.0492 0.9508 0.0000
vt 0.0626 0.9952 0.0000
vt 0.0537 0.9970 0.0000
vt 0.0446 0.9970 0.0000
vt 0.0357 0.9952 0.0000
vt 0.0273 0.9917 0.0000
vt 0.0197 0.9867 0.0000
vt 0.0133 0.9803 0.0000
vt 0.0083 0.9727 0.0000
vt 0.0048 0.9643 0.0000
vt 0.0030 0.9554 0.0000
vt 0.0030 0.9463 0.0000
vt 0.0048 0.9374 0.0000
vt 0.0083 0.9290 0.0000
vt 0.0133 0.9214 0.0000
vt 0.0197 0.9150 0.0000
vt 0.0273 0.9099 0.0000
vt 0.0357 0.9064 0.0000
vt 0.0446 0.9047 0.0000
vt 0.0537 0.9047 0.0000
vt 0.0626 0.9064 0.0000
vt 0.0710 0.9099 0.0000
vt 0.0786 0.9150 0.0000
vt 0.0850 0.9214 0.0000
vt 0.0901 0.9290 0.0000
vt 0.0936 0.9374 0.0000
vt 0.0953 0.9463 0.0000
vt 0.0953 0.9554 0.0000
vt 0.0936 0.9643 0.0000
vt 0.0901 0.9727 0.0000
vt 0.0850 0.9803 0.0000
vt 0.0786 0.9867 0.0000
vt 0.0710 0.9917 0.0000
vt 0.6731 0.2624 0.0000
vt 0.6698 0.5178 0.0000
vt 0.6607 0.5177 0.0000
vt 0.6642 0.2622 0.0000
vt 0.7389 0.6403 0.0000
vt 0.7349 0.6507 0.0000
vt 0.6777 0.6301 0.0000
vt 0.6830 0.6161 0.0000
vt 0.7314 0.6614 0.0000
vt 0.6731 0.6442 0.0000
vt 0.7284 0.6724 0.0000
vt 0.6694 0.6583 0.0000
vt 0.7259 0.6835 0.0000
vt 0.6663 0.6724 0.0000
vt 0.7240 0.6948 0.0000
vt 0.6640 0.6866 0.0000
vt 0.7225 0.7062 0.0000
vt 0.6622 0.7008 0.0000
vt 0.7216 0.7177 0.0000
vt 0.6612 0.7151 0.0000
vt 0.7212 0.7292 0.0000
vt 0.6607 0.7293 0.0000
vt 0.7213 0.7408 0.0000
vt 0.6609 0.7434 0.0000
vt 0.7218 0.7523 0.0000
vt 0.6616 0.7576 0.0000
vt 0.7229 0.7638 0.0000
vt 0.6630 0.7716 0.0000
vt 0.7244 0.7753 0.0000
vt 0.6649 0.7856 0.0000
vt 0.7263 0.7867 0.0000
vt 0.6673 0.7995 0.0000
vt 0.7288 0.7980 0.0000
vt 0.6704 0.8133 0.0000
vt 0.7316 0.8092 0.0000
vt 0.6740 0.8271 0.0000
vt 0.7349 0.8202 0.0000
vt 0.6782 0.8408 0.0000
vt 0.7387 0.8310 0.0000
vt 0.6830 0.8544 0.0000
vt 0.7428 0.8415 0.0000
vt 0.6886 0.8680 0.0000
vt 0.7474 0.8517 0.0000
vt 0.6949 0.8817 0.0000
vt 0.7524 0.8615 0.0000
vt 0.7022 0.8954 0.0000
vt 0.7577 0.8708 0.0000
vt 0.7108 0.9092 0.0000
vt 0.7633 0.8795 0.0000
vt 0.7213 0.9227 0.0000
vt 0.7691 0.8878 0.0000
vt 0.7342 0.9354 0.0000
vt 0.7745 0.8959 0.0000
vt 0.7504 0.9453 0.0000
vt 0.7889 0.5788 0.0000
vt 0.7815 0.5833 0.0000
vt 0.7586 0.5270 0.0000
vt 0.7784 0.5215 0.0000
vt 0.7742 0.5888 0.0000
vt 0.7416 0.5366 0.0000
vt 0.7672 0.5954 0.0000
vt 0.7273 0.5484 0.0000
vt 0.7605 0.6030 0.0000
vt 0.7154 0.5613 0.0000
vt 0.7544 0.6115 0.0000
vt 0.7053 0.5747 0.0000
vt 0.7487 0.6205 0.0000
vt 0.6967 0.5883 0.0000
vt 0.7435 0.6302 0.0000
vt 0.6893 0.6022 0.0000
vt 0.9305 0.2625 0.0000
vt 0.9335 0.5179 0.0000
vt 0.9244 0.5180 0.0000
vt 0.9216 0.2626 0.0000
vt 0.7885 0.2632 0.0000
vt 0.7880 0.5187 0.0000
vt 0.7789 0.5187 0.0000
vt 0.7796 0.2632 0.0000
vt 0.9483 0.2622 0.0000
vt 0.9517 0.5177 0.0000
vt 0.9426 0.5178 0.0000
vt 0.9394 0.2624 0.0000
vt 0.7698 0.5186 0.0000
vt 0.7707 0.2631 0.0000
vt 0.7607 0.5186 0.0000
vt 0.7618 0.2631 0.0000
vt 0.7517 0.5186 0.0000
vt 0.7530 0.2631 0.0000
vt 0.9153 0.5181 0.0000
vt 0.9127 0.2627 0.0000
vt 0.7426 0.5185 0.0000
vt 0.7441 0.2630 0.0000
vt 0.8684 0.2630 0.0000
vt 0.8699 0.5185 0.0000
vt 0.8608 0.5186 0.0000
vt 0.8595 0.2631 0.0000
vt 0.9063 0.5182 0.0000
vt 0.9039 0.2627 0.0000
vt 0.7335 0.5184 0.0000
vt 0.7352 0.2630 0.0000
vt 0.8517 0.5186 0.0000
vt 0.8506 0.2631 0.0000
vt 0.8972 0.5183 0.0000
vt 0.8950 0.2628 0.0000
vt 0.7244 0.5184 0.0000
vt 0.7263 0.2629 0.0000
vt 0.8426 0.5186 0.0000
vt 0.8417 0.2631 0.0000
vt 0.8881 0.5184 0.0000
vt 0.8861 0.2629 0.0000
vt 0.7153 0.5183 0.0000
vt 0.7174 0.2628 0.0000
vt 0.8335 0.5187 0.0000
vt 0.8329 0.2632 0.0000
vt 0.8790 0.5184 0.0000
vt 0.8772 0.2630 0.0000
vt 0.7062 0.5182 0.0000
vt 0.7086 0.2627 0.0000
vt 0.8244 0.5187 0.0000
vt 0.8240 0.2632 0.0000
vt 0.6971 0.5181 0.0000
vt 0.6997 0.2627 0.0000
vt 0.8153 0.5187 0.0000
vt 0.8151 0.2632 0.0000
vt 0.6880 0.5180 0.0000
vt 0.6908 0.2626 0.0000
vt 0.8062 0.5187 0.0000
vt 0.8062 0.2632 0.0000
vt 0.6789 0.5179 0.0000
vt 0.6819 0.2625 0.0000
vt 0.7971 0.5187 0.0000
vt 0.7973 0.2632 0.0000
vt 0.1443 0.9508 0.0000
vt 0.1488 0.9047 0.0000
vt 0.1577 0.9064 0.0000
vt 0.1397 0.9047 0.0000
vt 0.1308 0.9064 0.0000
vt 0.1224 0.9099 0.0000
vt 0.1148 0.9150 0.0000
vt 0.1084 0.9214 0.0000
vt 0.1034 0.9290 0.0000
vt 0.0999 0.9374 0.0000
vt 0.0981 0.9463 0.0000
vt 0.0981 0.9554 0.0000
vt 0.0999 0.9643 0.0000
vt 0.1034 0.9727 0.0000
vt 0.1084 0.9803 0.0000
vt 0.1148 0.9867 0.0000
vt 0.1224 0.9917 0.0000
vt 0.1308 0.9952 0.0000
vt 0.1397 0.9970 0.0000
vt 0.1488 0.9970 0.0000
vt 0.1577 0.9952 0.0000
vt 0.1661 0.9917 0.0000
vt 0.1737 0.9867 0.0000
vt 0.1801 0.9803 0.0000
vt 0.1852 0.9727 0.0000
vt 0.1887 0.9643 0.0000
vt 0.1904 0.9554 0.0000
vt 0.1904 0.9463 0.0000
vt 0.1887 0.9374 0.0000
vt 0.1852 0.9290 0.0000
vt 0.1801 0.9214 0.0000
vt 0.1737 0.9150 0.0000
vt 0.1661 0.9099 0.0000
vt 0.5147 0.0030 0.0000
vt 0.5351 0.0030 0.0000
vt 0.5351 0.9019 0.0000
vt 0.5147 0.9019 0.0000
vt 0.5556 0.0030 0.0000
vt 0.5556 0.9019 0.0000
vt 0.5761 0.0030 0.0000
vt 0.5761 0.9019 0.0000
vt 0.5965 0.0030 0.0000
vt 0.5965 0.9019 0.0000
vt 0.6170 0.0030 0.0000
vt 0.6170 0.9019 0.0000
vt 0.6375 0.0030 0.0000
vt 0.6375 0.9019 0.0000
vt 0.6579 0.0030 0.0000
vt 0.6579 0.9019 0.0000
vt 0.0030 0.0030 0.0000
vt 0.0235 0.0030 0.0000
vt 0.0235 0.9019 0.0000
vt 0.0030 0.9019 0.0000
vt 0.0439 0.0030 0.0000
vt 0.0439 0.9019 0.0000
vt 0.0644 0.0030 0.0000
vt 0.0644 0.9019 0.0000
vt 0.0849 0.0030 0.0000
vt 0.0849 0.9019 0.0000
vt 0.1053 0.0030 0.0000
vt 0.1053 0.9019 0.0000
vt 0.1258 0.0030 0.0000
vt 0.1258 0.9019 0.0000
vt 0.1463 0.0030 0.0000
vt 0.1463 0.9019 0.0000
vt 0.1667 0.0030 0.0000
vt 0.1667 0.9019 0.0000
vt 0.1872 0.0030 0.0000
vt 0.1872 0.9019 0.0000
vt 0.2077 0.0030 0.0000
vt 0.2077 0.9019 0.0000
vt 0.2281 0.0030 0.0000
vt 0.2281 0.9019 0.0000
vt 0.2486 0.0030 0.0000
vt 0.2486 0.9019 0.0000
vt 0.2691 0.0030 0.0000
vt 0.2691 0.9019 0.0000
vt 0.2895 0.0030 0.0000
vt 0.2895 0.9019 0.0000
vt 0.3100 0.0030 0.0000
vt 0.3100 0.9019 0.0000
vt 0.3305 0.0030 0.0000
vt 0.3305 0.9019 0.0000
vt 0.3509 0.0030 0.0000
vt 0.3509 0.9019 0.0000
vt 0.3714 0.0030 0.0000
vt 0.3714 0.9019 0.0000
vt 0.3919 0.0030 0.0000
vt 0.3919 0.9019 0.0000
vt 0.4123 0.0030 0.0000
vt 0.4123 0.9019 0.0000
vt 0.4328 0.0030 0.0000
vt 0.4328 0.9019 0.0000
vt 0.4533 0.0030 0.0000
vt 0.4533 0.9019 0.0000
vt 0.4737 0.0030 0.0000
vt 0.4737 0.9019 0.0000
vt 0.4942 0.0030 0.0000
vt 0.4942 0.9019 0.0000
# 396 texture coords

o Cylinder
g Cylinder
usemtl wire_204204204
s off
f 1/1/1 2/2/1 3/3/1 4/4/1 
f 5/5/2 6/6/2 7/7/2 8/8/2 
f 8/8/2 7/7/2 9/9/2 10/10/2 
f 10/10/2 9/9/2 11/11/2 12/12/2 
f 12/12/2 11/11/2 13/13/2 14/14/2 
f 14/14/3 13/13/2 15/15/2 16/16/2 
f 16/16/2 15/15/2 17/17/2 18/18/2 
f 18/18/2 17/17/2 19/19/2 20/20/2 
f 20/20/2 19/19/2 21/21/2 22/22/2 
f 22/22/2 21/21/2 23/23/2 24/24/2 
f 24/24/2 23/23/2 25/25/2 26/26/2 
f 26/26/2 25/25/2 27/27/2 28/28/2 
f 28/28/3 27/27/2 29/29/2 30/30/3 
f 30/30/2 29/29/2 31/31/2 32/32/2 
f 32/32/2 31/31/2 33/33/2 34/34/2 
f 34/34/2 33/33/2 35/35/2 36/36/2 
f 36/36/2 35/35/2 37/37/2 38/38/2 
f 38/38/3 37/37/3 39/39/3 40/40/3 
f 40/40/2 39/39/2 41/41/2 42/42/2 
f 42/42/2 41/41/2 43/43/2 44/44/2 
f 44/44/2 43/43/2 45/45/2 46/46/2 
f 46/46/2 45/45/2 47/47/2 48/48/2 
f 48/48/2 47/47/2 49/49/2 50/50/2 
f 50/50/2 49/49/2 51/51/2 1/52/2 
f 1/52/2 51/51/2 52/53/2 2/54/2 
f 2/55/2 52/56/2 53/57/2 54/58/2 
f 54/58/2 53/57/2 55/59/2 56/60/2 
f 56/60/2 55/59/2 57/61/2 58/62/2 
f 58/62/2 57/61/2 59/63/2 60/64/2 
f 60/64/2 59/63/2 61/65/2 62/66/2 
f 62/66/2 61/65/2 63/67/2 64/68/2 
f 64/68/2 63/67/2 65/69/2 66/70/2 
f 66/70/2 65/69/2 6/6/2 5/5/2 
f 56/71/4 58/72/4 67/73/4 68/74/4 
f 26/75/5 28/76/5 69/77/5 70/78/6 
f 2/79/7 54/80/7 71/81/7 3/82/8 
f 28/76/9 30/83/9 72/84/9 69/77/9 
f 56/71/10 68/74/10 71/81/10 54/80/10 
f 30/83/11 32/85/11 73/86/11 72/84/11 
f 32/85/12 34/87/12 74/88/12 73/86/12 
f 58/72/13 60/89/13 75/90/14 67/73/14 
f 34/87/15 36/91/15 76/92/15 74/88/15 
f 8/93/16 10/94/16 77/95/16 78/96/16 
f 60/89/17 62/97/17 79/98/18 75/90/18 
f 36/91/19 38/99/20 80/100/20 76/92/20 
f 10/94/21 12/101/21 81/102/22 77/95/22 
f 62/97/23 64/103/23 82/104/24 79/98/24 
f 38/99/25 40/105/26 83/106/25 80/100/25 
f 12/101/27 14/107/27 84/108/28 81/102/28 
f 64/103/29 66/109/29 85/110/29 82/104/29 
f 40/105/30 42/111/30 86/112/30 83/106/30 
f 14/107/31 16/113/31 87/114/32 84/108/32 
f 66/109/33 5/115/34 88/116/34 85/110/33 
f 42/111/35 44/117/35 89/118/35 86/112/35 
f 16/113/36 18/119/36 90/120/36 87/114/36 
f 44/117/37 46/121/37 91/122/37 89/118/37 
f 18/119/38 20/123/38 92/124/38 90/120/38 
f 46/121/39 48/125/39 93/126/39 91/122/39 
f 20/123/40 22/127/40 94/128/41 92/124/40 
f 48/125/42 50/129/42 95/130/43 93/126/42 
f 22/127/44 24/131/44 96/132/44 94/128/44 
f 50/129/45 1/1/45 4/4/45 95/130/45 
f 24/131/46 26/75/46 70/78/46 96/132/46 
f 97/133/3 85/134/3 88/135/3 
f 97/133/2 88/135/2 78/136/2 
f 97/133/3 78/136/3 77/137/3 
f 97/133/3 77/137/3 81/138/3 
f 97/133/3 81/138/3 84/139/3 
f 97/133/2 84/139/2 87/140/2 
f 90/141/3 97/133/3 87/140/3 
f 92/142/2 97/133/2 90/141/2 
f 94/143/2 97/133/2 92/142/2 
f 96/144/2 97/133/2 94/143/2 
f 70/145/3 97/133/3 96/144/2 
f 69/146/2 97/133/2 70/145/2 
f 72/147/2 97/133/2 69/146/2 
f 73/148/2 97/133/2 72/147/2 
f 74/149/2 97/133/2 73/148/2 
f 76/150/2 97/133/2 74/149/2 
f 80/151/2 97/133/2 76/150/2 
f 80/151/2 83/152/2 97/133/2 
f 83/152/2 86/153/2 97/133/2 
f 86/153/2 89/154/2 97/133/2 
f 89/154/3 91/155/3 97/133/3 
f 91/155/2 93/156/2 97/133/2 
f 93/156/2 95/157/2 97/133/2 
f 95/157/2 4/158/2 97/133/2 
f 4/158/2 3/159/2 97/133/3 
f 3/159/2 71/160/2 97/133/2 
f 71/160/2 68/161/2 97/133/2 
f 68/161/2 67/162/2 97/133/2 
f 67/162/3 75/163/3 97/133/3 
f 75/163/2 79/164/2 97/133/2 
f 79/164/2 82/165/2 97/133/2 
f 82/165/2 85/134/2 97/133/2 
f 5/115/47 8/93/48 78/96/48 88/116/47 
f 98/166/49 99/167/49 100/168/50 101/169/49 
f 102/170/51 103/171/51 104/172/51 105/173/51 
f 103/171/52 106/174/52 107/175/52 104/172/52 
f 106/174/52 108/176/52 109/177/52 107/175/52 
f 108/176/52 110/178/52 111/179/52 109/177/52 
f 110/178/51 112/180/52 113/181/52 111/179/52 
f 112/180/52 114/182/52 115/183/52 113/181/52 
f 114/182/52 116/184/52 117/185/52 115/183/52 
f 116/184/52 118/186/52 119/187/52 117/185/52 
f 118/186/52 120/188/52 121/189/52 119/187/52 
f 120/188/52 122/190/52 123/191/52 121/189/52 
f 122/190/52 124/192/52 125/193/52 123/191/52 
f 124/192/52 126/194/51 127/195/52 125/193/52 
f 126/194/52 128/196/52 129/197/52 127/195/52 
f 128/196/52 130/198/52 131/199/52 129/197/52 
f 130/198/52 132/200/52 133/201/52 131/199/52 
f 132/200/52 134/202/52 135/203/52 133/201/52 
f 134/202/51 136/204/51 137/205/51 135/203/51 
f 136/204/52 138/206/52 139/207/52 137/205/52 
f 138/206/52 140/208/52 141/209/52 139/207/52 
f 140/208/52 142/210/52 143/211/52 141/209/52 
f 142/210/52 144/212/52 145/213/52 143/211/52 
f 144/212/52 146/214/52 147/215/52 145/213/52 
f 146/214/52 98/216/52 148/217/52 147/215/52 
f 98/216/52 101/218/52 149/219/52 148/217/52 
f 101/220/52 150/221/52 151/222/52 149/223/52 
f 150/221/52 152/224/52 153/225/52 151/222/52 
f 152/224/52 154/226/52 155/227/52 153/225/52 
f 154/226/52 156/228/52 157/229/52 155/227/52 
f 156/228/52 158/230/52 159/231/52 157/229/52 
f 158/230/52 160/232/52 161/233/52 159/231/52 
f 160/232/52 162/234/52 163/235/52 161/233/52 
f 162/234/52 102/170/52 105/173/52 163/235/52 
f 152/236/53 164/237/54 165/238/53 154/239/53 
f 122/240/55 166/241/55 167/242/55 124/243/55 
f 101/244/56 100/245/56 168/246/56 150/247/56 
f 124/243/57 167/242/58 169/248/58 126/249/57 
f 152/236/59 150/247/59 168/246/59 164/237/59 
f 126/249/60 169/248/61 170/250/61 128/251/60 
f 128/251/62 170/250/63 171/252/63 130/253/62 
f 154/239/64 165/238/64 172/254/64 156/255/64 
f 130/253/65 171/252/65 173/256/65 132/257/65 
f 103/258/66 174/259/66 175/260/66 106/261/66 
f 156/255/67 172/254/67 176/262/67 158/263/67 
f 132/257/68 173/256/68 177/264/69 134/265/69 
f 106/261/70 175/260/70 178/266/70 108/267/70 
f 158/263/71 176/262/71 179/268/71 160/269/71 
f 134/265/72 177/264/72 180/270/73 136/271/73 
f 108/267/74 178/266/74 181/272/74 110/273/74 
f 160/269/75 179/268/75 182/274/75 162/275/75 
f 136/271/76 180/270/76 183/276/76 138/277/76 
f 110/273/77 181/272/77 184/278/77 112/279/77 
f 162/275/78 182/274/79 185/280/79 102/281/79 
f 138/277/80 183/276/81 186/282/81 140/283/80 
f 112/279/82 184/278/82 187/284/83 114/285/82 
f 140/283/84 186/282/85 188/286/85 142/287/84 
f 114/285/86 187/284/86 189/288/86 116/289/86 
f 142/287/87 188/286/88 190/290/88 144/291/87 
f 116/289/89 189/288/89 191/292/89 118/293/89 
f 144/291/90 190/290/90 192/294/90 146/295/90 
f 118/293/91 191/292/92 193/296/91 120/297/91 
f 146/295/93 192/294/93 99/167/93 98/166/93 
f 120/297/94 193/296/94 166/241/94 122/240/94 
f 194/298/51 185/299/51 182/300/51 
f 194/298/52 174/301/52 185/299/52 
f 194/298/51 175/302/51 174/301/51 
f 194/298/51 178/303/51 175/302/51 
f 194/298/51 181/304/51 178/303/51 
f 194/298/52 184/305/52 181/304/52 
f 187/306/51 184/305/51 194/298/51 
f 189/307/52 187/306/52 194/298/52 
f 191/308/52 189/307/52 194/298/52 
f 193/309/52 191/308/52 194/298/52 
f 166/310/51 193/309/52 194/298/51 
f 167/311/52 166/310/52 194/298/52 
f 169/312/52 167/311/52 194/298/52 
f 170/313/52 169/312/52 194/298/52 
f 171/314/52 170/313/52 194/298/52 
f 173/315/52 171/314/52 194/298/52 
f 177/316/52 173/315/52 194/298/52 
f 177/316/52 194/298/52 180/317/52 
f 180/317/52 194/298/52 183/318/52 
f 183/318/52 194/298/52 186/319/52 
f 186/319/51 194/298/51 188/320/51 
f 188/320/52 194/298/52 190/321/52 
f 190/321/52 194/298/52 192/322/52 
f 192/322/52 194/298/52 99/323/52 
f 99/323/52 194/298/51 100/324/52 
f 100/324/52 194/298/52 168/325/52 
f 168/325/52 194/298/52 164/326/52 
f 164/326/52 194/298/52 165/327/52 
f 165/327/51 194/298/51 172/328/51 
f 172/328/52 194/298/52 176/329/52 
f 176/329/52 194/298/52 179/330/52 
f 179/330/52 194/298/52 182/300/52 
f 102/281/95 185/280/95 174/259/95 103/258/96 
f 65/331/97 63/332/98 161/333/98 163/334/97 
f 63/332/99 61/335/99 159/336/99 161/333/99 
f 61/335/100 59/337/100 157/338/100 159/336/100 
f 59/337/101 57/339/101 155/340/101 157/338/101 
f 57/339/102 55/341/102 153/342/102 155/340/102 
f 55/341/103 53/343/103 151/344/103 153/342/103 
f 53/343/104 52/345/104 149/346/104 151/344/104 
f 52/347/105 51/348/105 148/349/105 149/350/105 
f 51/348/106 49/351/106 147/352/106 148/349/106 
f 49/351/107 47/353/107 145/354/107 147/352/107 
f 47/353/108 45/355/108 143/356/108 145/354/108 
f 45/355/109 43/357/109 141/358/109 143/356/109 
f 43/357/110 41/359/110 139/360/110 141/358/110 
f 41/359/111 39/361/112 137/362/112 139/360/111 
f 39/361/113 37/363/114 135/364/114 137/362/113 
f 37/363/115 35/365/116 133/366/116 135/364/115 
f 35/365/117 33/367/118 131/368/118 133/366/117 
f 33/367/119 31/369/119 129/370/119 131/368/119 
f 31/369/120 29/371/120 127/372/120 129/370/120 
f 29/371/121 27/373/121 125/374/121 127/372/121 
f 27/373/122 25/375/122 123/376/122 125/374/122 
f 25/375/123 23/377/123 121/378/123 123/376/123 
f 23/377/124 21/379/124 119/380/124 121/378/124 
f 21/379/125 19/381/125 117/382/125 119/380/125 
f 19/381/126 17/383/126 115/384/126 117/382/126 
f 17/383/127 15/385/127 113/386/127 115/384/127 
f 15/385/128 13/387/128 111/388/128 113/386/128 
f 13/387/129 11/389/129 109/390/129 111/388/129 
f 11/389/130 9/391/130 107/392/130 109/390/130 
f 9/391/131 7/393/132 104/394/132 107/392/131 
f 7/393/133 6/395/134 105/396/134 104/394/133 
f 6/395/135 65/331/136 163/334/136 105/396/135 
# 160 polygons - 64 triangles

